<svg width="20" height="20" viewBox="0 0 20 20" fill="none" xmlns="http://www.w3.org/2000/svg">
<path d="M7.0322 10.9992L9.0162 12.9832L13.9762 8.0232M17.5262 12.2952L18.4192 11.4022C18.6035 11.218 18.7496 10.9992 18.8493 10.7585C18.9491 10.5178 19.0004 10.2598 19.0004 9.9992C19.0004 9.73863 18.9491 9.48062 18.8493 9.23989C18.7496 8.99916 18.6035 8.78044 18.4192 8.5962L17.5262 7.7032C17.342 7.51895 17.1958 7.30021 17.0962 7.05949C16.9965 6.81876 16.9452 6.56075 16.9452 6.3002V5.0392C16.9452 4.51301 16.7362 4.00837 16.3641 3.6363C15.992 3.26423 15.4874 3.0552 14.9612 3.0552H13.6992C13.4386 3.05528 13.1806 3.00401 12.9399 2.90432C12.6991 2.80463 12.4804 2.65847 12.2962 2.4742L11.4032 1.5812C11.219 1.39694 11.0002 1.25077 10.7595 1.15105C10.5188 1.05133 10.2608 1 10.0002 1C9.73963 1 9.48162 1.05133 9.24089 1.15105C9.00016 1.25077 8.78144 1.39694 8.5972 1.5812L7.7042 2.4742C7.51995 2.65843 7.30121 2.80455 7.06049 2.90424C6.81976 3.00393 6.56175 3.05523 6.3012 3.0552H5.0402C4.77957 3.05507 4.52147 3.10629 4.28065 3.20594C4.03982 3.30558 3.82099 3.4517 3.63665 3.63595C3.45232 3.82019 3.30609 4.03895 3.20632 4.27973C3.10655 4.5205 3.0552 4.77857 3.0552 5.0392V6.3012C3.0552 6.8282 2.8462 7.3322 2.4742 7.7042L1.5812 8.5972C1.39694 8.78144 1.25077 9.00016 1.15105 9.24089C1.05133 9.48162 1 9.73963 1 10.0002C1 10.2608 1.05133 10.5188 1.15105 10.7595C1.25077 11.0002 1.39694 11.219 1.5812 11.4032L2.4742 12.2962C2.8462 12.6682 3.0552 13.1722 3.0552 13.6992V14.9612C3.0552 15.4874 3.26423 15.992 3.6363 16.3641C4.00837 16.7362 4.51301 16.9452 5.0392 16.9452H6.3012C6.8282 16.9452 7.3322 17.1542 7.7042 17.5262L8.5972 18.4192C8.78144 18.6035 9.00016 18.7496 9.24089 18.8494C9.48162 18.9491 9.73963 19.0004 10.0002 19.0004C10.2608 19.0004 10.5188 18.9491 10.7595 18.8494C11.0002 18.7496 11.219 18.6035 11.4032 18.4192L12.2962 17.5262C12.6684 17.1542 13.173 16.9453 13.6992 16.9452H14.9612C15.4874 16.9452 15.992 16.7362 16.3641 16.3641C16.7362 15.992 16.9452 15.4874 16.9452 14.9612V13.6992C16.9452 13.1722 17.1542 12.6672 17.5262 12.2952Z" stroke="white" stroke-width="2" stroke-linecap="round" stroke-linejoin="round"/>
</svg>
