<svg width="26" height="19" viewBox="0 0 26 19" fill="none" xmlns="http://www.w3.org/2000/svg">
<path d="M1.075 9.81641C0.974999 9.54701 0.974999 9.25066 1.075 8.98126C2.04899 6.6196 3.70229 4.60033 5.82529 3.17943C7.94829 1.75853 10.4454 1 13 1C15.5546 1 18.0517 1.75853 20.1747 3.17943C22.2977 4.60033 23.951 6.6196 24.925 8.98126C25.025 9.25066 25.025 9.54701 24.925 9.81641C23.951 12.1781 22.2977 14.1973 20.1747 15.6182C18.0517 17.0391 15.5546 17.7977 13 17.7977C10.4454 17.7977 7.94829 17.0391 5.82529 15.6182C3.70229 14.1973 2.04899 12.1781 1.075 9.81641Z" stroke="#8E8E93" stroke-width="2" stroke-linecap="round" stroke-linejoin="round"/>
<path d="M12.9992 12.9975C14.9874 12.9975 16.5991 11.3858 16.5991 9.39767C16.5991 7.40954 14.9874 5.79785 12.9992 5.79785C11.0111 5.79785 9.39941 7.40954 9.39941 9.39767C9.39941 11.3858 11.0111 12.9975 12.9992 12.9975Z" stroke="#8E8E93" stroke-width="2" stroke-linecap="round" stroke-linejoin="round"/>
</svg>
