<svg width="68" height="66" viewBox="0 0 68 66" fill="none" xmlns="http://www.w3.org/2000/svg">
<path d="M36.1034 0.0362064C46.9644 0.90338 56.2491 9.36636 58.59 20.0936C58.3299 20.1498 58.2511 19.9892 58.0856 19.8688C51.7329 15.2037 46.1132 12.8511 38.0502 14.0876C37.8453 14.1198 37.6009 13.9431 37.664 14.3125C34.929 13.7584 33.0453 13.7665 30.3182 14.3125C30.3813 13.9431 30.1369 14.1198 29.932 14.0876C23.3744 13.084 16.6591 14.746 11.2917 18.6804C10.8267 19.0177 9.75474 19.8286 9.39218 20.206C9.53405 18.9534 9.97543 17.6206 10.4247 16.4402C13.7744 7.47945 22.1606 0.991704 31.5793 0.140588L31.7606 0.0362064C33.1714 0.1165 34.7004 -0.076205 36.1034 0.0362064Z" fill="#50B2D5"/>
<path d="M58.6854 20.5625C59.2766 20.8997 59.8913 21.5662 60.3564 22.0881C76.3326 39.9214 61.6332 68.2731 38.1614 64.973C36.853 64.7884 35.4264 64.4592 34.1969 63.9694C34.2126 63.9694 34.252 63.8168 34.3939 63.7767C42.6619 60.9905 48.9278 53.6837 50.7879 45.0441C50.8195 44.8915 50.8746 44.7229 50.8983 44.5945C51.3791 44.474 51.8441 43.9039 52.1909 43.5346C57.8736 37.4162 60.3406 28.897 58.6933 20.5705L58.6854 20.5625Z" fill="#F1A23B"/>
<path d="M9.16886 20.6562C7.28513 29.2798 10.7767 39.2363 17.1846 45.0254C17.2949 45.7802 17.4841 46.535 17.7127 47.2656C20.1796 55.1987 26.154 61.0922 33.7756 63.9507C21.3461 68.1661 7.65557 61.4536 2.77677 49.2168C-0.919763 39.9589 1.06643 28.5491 8.09695 21.4913C8.36492 21.2263 8.82207 20.8088 9.16886 20.6562Z" fill="#3176B1"/>
<path d="M50.793 45.0234C48.9408 53.6631 42.667 60.9618 34.399 63.756C34.265 63.8042 34.2177 63.9487 34.202 63.9487C34.0995 63.9808 33.8867 63.9246 33.7606 63.9487C26.1468 61.0902 20.1725 55.1967 17.6976 47.2636C17.469 46.533 17.2799 45.7782 17.1695 45.0234C25.1064 52.2017 37.6699 53.6069 46.8127 47.9461C48.2078 47.087 49.3901 45.8826 50.7851 45.0234H50.793Z" fill="#EF762F"/>
<path d="M9.3916 20.2092C9.75416 19.8398 10.8261 19.0289 11.2911 18.6836C16.6507 14.7492 23.3659 13.0871 29.9314 14.0908C30.1363 14.1229 30.3807 13.9463 30.3176 14.3156C16.493 17.0617 10.8418 34.2606 20.2448 45.028C29.6477 55.7954 46.7668 52.1421 51.354 38.7972C51.4249 40.7403 51.2673 42.6754 50.9126 44.5784C50.889 44.7068 50.8338 44.8755 50.8023 45.028C49.4072 45.8872 48.2249 47.0916 46.8299 47.9507C37.687 53.6114 25.1314 52.1983 17.1866 45.028C10.7788 39.2388 7.28717 29.2904 9.17091 20.6588C9.2182 20.426 9.22608 20.3778 9.3916 20.2092Z" fill="#173F84"/>
<path d="M58.5706 20.1138C58.6021 20.2664 58.6494 20.4109 58.6809 20.5634C60.3282 28.8899 57.8691 37.4091 52.1785 43.5275C51.8317 43.8968 51.3667 44.4669 50.8859 44.5874C51.2484 42.6844 51.3982 40.7493 51.3272 38.8062C54.9923 28.1432 48.4346 16.5166 37.6367 14.3246C37.5736 13.9553 37.8179 14.1319 38.0229 14.0998C46.0859 12.8633 51.7056 15.2159 58.0583 19.8809C58.2238 20.0014 58.2947 20.162 58.5627 20.1058L58.5706 20.1138Z" fill="#2F59C1"/>
<path d="M32.954 22.6173C40.0239 21.9428 45.4151 28.6473 43.3579 35.5927C41.088 43.2528 31.1806 45.1236 26.2546 38.8928C21.3679 32.7263 25.2772 23.3479 32.954 22.6173ZM33.624 27.8364C26.7747 28.3502 28.7137 39.3184 35.4289 37.1504C40.6308 35.4723 39.0703 27.4269 33.624 27.8364Z" fill="#173F84"/>
</svg>
