<svg width="137" height="29" viewBox="0 0 137 29" fill="none" xmlns="http://www.w3.org/2000/svg">
<g clip-path="url(#clip0_1994_5490)">
<path d="M31.7188 22.3071L38.6016 3.42188H42.7307L49.6136 22.3071H45.7529L40.6526 7.57637L35.5251 22.3071H31.7188ZM34.7409 18.0199L35.7121 15.1859H45.3186L46.2627 18.0199H34.7379H34.7409Z" fill="white"/>
<path d="M49.9375 22.304V3.42188H53.581V22.3071H49.9375V22.304Z" fill="white"/>
<path d="M65.8037 22.6319C64.4373 22.6319 63.2158 22.3968 62.1481 21.9295C61.0773 21.4622 60.2358 20.7778 59.6235 19.8794C59.0113 18.9809 58.6885 17.8925 58.6523 16.6142H62.513C62.5311 17.172 62.6759 17.6755 62.9443 18.1247C63.2128 18.5739 63.5868 18.9297 64.0633 19.1889C64.5399 19.4512 65.1099 19.5809 65.7765 19.5809C66.3526 19.5809 66.8503 19.4874 67.2755 19.2975C67.6978 19.1075 68.0326 18.8422 68.2739 18.5016C68.5182 18.1609 68.6388 17.7569 68.6388 17.2866C68.6388 16.7469 68.5031 16.2977 68.2347 15.9389C67.9632 15.5801 67.6013 15.2726 67.1428 15.0224C66.6844 14.7722 66.1535 14.54 65.5503 14.335C64.9471 14.13 64.3227 13.9159 63.6742 13.7019C62.1632 13.1984 61.02 12.5411 60.2479 11.7332C59.4727 10.9252 59.0867 9.85489 59.0867 8.52231C59.0867 7.38872 59.3581 6.41793 59.895 5.60994C60.4319 4.80195 61.1889 4.18089 62.1632 3.74976C63.1344 3.31863 64.2413 3.10156 65.4839 3.10156C66.7266 3.10156 67.8818 3.32165 68.8439 3.76182C69.8061 4.20199 70.5722 4.83512 71.1392 5.66421C71.7063 6.49028 72.0079 7.46409 72.0441 8.57658H68.1321C68.114 8.16354 67.9934 7.77161 67.7672 7.40379C67.541 7.03598 67.2303 6.7375 66.8352 6.5144C66.4401 6.28829 65.9726 6.17674 65.4327 6.17674C64.9652 6.15865 64.5369 6.231 64.1508 6.39381C63.7647 6.55661 63.4631 6.79479 63.246 7.10833C63.0288 7.42188 62.9232 7.81381 62.9232 8.28112C62.9232 8.74843 63.0318 9.1072 63.246 9.41471C63.4631 9.72223 63.7678 9.98453 64.1629 10.2106C64.558 10.4368 65.0255 10.6418 65.5654 10.8317C66.1053 11.0216 66.6904 11.2146 67.3208 11.4106C68.2739 11.7332 69.1425 12.116 69.9237 12.5562C70.7049 12.9964 71.3323 13.5692 71.7998 14.2687C72.2673 14.9711 72.5025 15.8967 72.5025 17.0484C72.5025 18.0373 72.2462 18.9538 71.7334 19.801C71.2207 20.6451 70.4697 21.3295 69.4804 21.8511C68.4911 22.3727 67.2665 22.6319 65.8097 22.6319H65.8037Z" fill="white"/>
<path d="M75.2801 6.85023C74.6135 6.85023 74.0736 6.65728 73.6604 6.27138C73.2472 5.88547 73.0391 5.39405 73.0391 4.80012C73.0391 4.20619 73.2472 3.71778 73.6604 3.32886C74.0736 2.94295 74.6135 2.75 75.2801 2.75C75.9466 2.75 76.4895 2.94295 76.9118 3.32886C77.3341 3.71476 77.5452 4.20619 77.5452 4.80012C77.5452 5.39405 77.3341 5.88246 76.9118 6.27138C76.4895 6.65728 75.9436 6.85023 75.2801 6.85023ZM73.4432 22.3075V8.71342H77.0867V22.3105H73.4432V22.3075Z" fill="white"/>
<path d="M84.4525 28.5644C83.1555 28.5644 82.0244 28.4076 81.0532 28.0911C80.082 27.7775 79.331 27.2982 78.8002 26.662C78.2693 26.0229 78.0039 25.236 78.0039 24.3014C78.0039 23.6532 78.1668 23.0502 78.4895 22.4924C78.8122 21.9347 79.2888 21.4282 79.9192 20.9669C80.5495 20.5086 81.3217 20.1167 82.2416 19.7941L83.617 21.603C82.7905 21.8714 82.1964 22.2151 81.8344 22.6281C81.4755 23.0411 81.2945 23.4723 81.2945 23.9215C81.2945 24.3345 81.4303 24.6843 81.6987 24.9737C81.9702 25.2601 82.3472 25.4742 82.8328 25.6068C83.3184 25.7425 83.8492 25.8088 84.4253 25.8088C85.0014 25.8088 85.5051 25.7364 85.9364 25.5917C86.3677 25.447 86.7055 25.242 86.9498 24.9707C87.1941 24.7023 87.3148 24.3677 87.3148 23.9727C87.3148 23.4693 87.1399 23.0683 86.787 22.7728C86.4341 22.4774 85.7494 22.2904 84.7239 22.2211C83.8251 22.1487 83.0137 22.0402 82.2959 21.8985C81.575 21.7538 80.9507 21.594 80.4199 21.4131C79.889 21.2322 79.4336 21.0272 79.0565 20.792C78.6795 20.5599 78.3719 20.3247 78.1396 20.0896V19.4685L81.0261 16.3662L83.6441 17.2013L80.2449 20.5478L81.2975 18.7389C81.4785 18.8655 81.6655 18.9831 81.8646 19.0886C82.0637 19.1972 82.305 19.2876 82.5945 19.357C82.881 19.4293 83.255 19.4956 83.7135 19.559C84.172 19.6223 84.7601 19.6886 85.481 19.761C86.6874 19.8514 87.6707 20.0685 88.4368 20.4092C89.1999 20.7498 89.7579 21.2111 90.1108 21.7839C90.4606 22.3598 90.6386 23.0592 90.6386 23.8883C90.6386 24.7174 90.4184 25.453 89.9781 26.1555C89.5377 26.858 88.8621 27.4308 87.9542 27.883C87.0463 28.3323 85.8791 28.5584 84.4585 28.5584L84.4525 28.5644ZM84.4796 18.2867C83.3455 18.2867 82.3653 18.0666 81.5388 17.6264C80.7094 17.1863 80.076 16.5923 79.6356 15.8446C79.1953 15.0969 78.9751 14.2679 78.9751 13.3483C78.9751 12.4288 79.1953 11.5997 79.6356 10.852C80.076 10.1073 80.7064 9.50736 81.5238 9.05814C82.3411 8.60893 83.3274 8.38281 84.4796 8.38281C85.6318 8.38281 86.5879 8.60893 87.4083 9.05814C88.2257 9.50736 88.853 10.1073 89.2843 10.852C89.7157 11.5997 89.9328 12.4288 89.9328 13.3483C89.9328 14.2679 89.7157 15.0969 89.2843 15.8446C88.853 16.5923 88.2287 17.1832 87.4083 17.6264C86.5879 18.0666 85.6137 18.2867 84.4796 18.2867ZM84.4796 15.51C85.1824 15.51 85.7434 15.3291 86.1656 14.9703C86.5879 14.6115 86.799 14.0719 86.799 13.3513C86.799 12.6308 86.5879 12.1182 86.1656 11.7595C85.7434 11.4007 85.1793 11.2198 84.4796 11.2198C83.7799 11.2198 83.2068 11.4007 82.7664 11.7595C82.3261 12.1182 82.1059 12.6489 82.1059 13.3513C82.1059 14.0538 82.323 14.6115 82.7544 14.9703C83.1857 15.3291 83.7617 15.51 84.4826 15.51H84.4796ZM86.7176 11.2741L86.1234 8.71143H91.7365V10.8701L86.7176 11.2741Z" fill="white"/>
<path d="M92.5234 22.3073V8.71322H95.7356L95.9769 10.9533C96.4082 10.1634 97.0054 9.53628 97.7716 9.07802C98.5346 8.61976 99.4485 8.39062 100.51 8.39062C101.644 8.39062 102.597 8.6288 103.37 9.10515C104.142 9.5815 104.736 10.2689 105.152 11.1703C105.565 12.0688 105.773 13.1662 105.773 14.4626V22.3133H102.13V14.7882C102.13 13.727 101.895 12.9099 101.427 12.3341C100.96 11.7582 100.248 11.4718 99.2947 11.4718C98.7005 11.4718 98.1667 11.6165 97.6901 11.903C97.2136 12.1924 96.8396 12.5994 96.5711 13.13C96.3027 13.6606 96.167 14.3118 96.167 15.0867V22.3163H92.5234V22.3073Z" fill="white"/>
<path d="M111.601 22.6359C110.485 22.6359 109.559 22.452 108.82 22.0842C108.081 21.7164 107.529 21.2219 107.161 20.6009C106.793 19.9798 106.609 19.2924 106.609 18.5357C106.609 17.6915 106.821 16.9529 107.243 16.3228C107.665 15.6927 108.307 15.2042 109.173 14.8515C110.036 14.5018 111.134 14.3269 112.467 14.3269H115.788C115.788 13.6425 115.703 13.0848 115.531 12.6537C115.359 12.2225 115.082 11.8969 114.696 11.6829C114.31 11.4658 113.8 11.3603 113.17 11.3603C112.485 11.3603 111.906 11.505 111.429 11.7914C110.953 12.0808 110.66 12.5391 110.551 13.1662H107.017C107.107 12.1773 107.427 11.3331 107.976 10.6307C108.525 9.92821 109.252 9.3795 110.162 8.98456C111.07 8.58961 112.084 8.39062 113.2 8.39062C114.476 8.39062 115.588 8.60167 116.533 9.02375C117.477 9.44583 118.197 10.0669 118.692 10.8839C119.187 11.704 119.434 12.6959 119.434 13.8656V22.3103H116.385L115.981 20.2331C115.782 20.5918 115.543 20.9174 115.266 21.2039C114.985 21.4933 114.663 21.7435 114.295 21.9606C113.927 22.1777 113.525 22.3435 113.094 22.4611C112.663 22.5786 112.168 22.6359 111.61 22.6359H111.601ZM112.494 19.8291C112.943 19.8291 113.354 19.7447 113.721 19.5728C114.089 19.401 114.409 19.1628 114.681 18.8583C114.949 18.5538 115.166 18.2101 115.329 17.8332C115.492 17.4564 115.598 17.0433 115.652 16.5911V16.564H112.871C112.295 16.564 111.83 16.6303 111.48 16.766C111.131 16.9016 110.874 17.0946 110.711 17.3448C110.548 17.5981 110.467 17.8845 110.467 18.2071C110.467 18.5477 110.548 18.8402 110.711 19.0844C110.874 19.3286 111.113 19.5125 111.426 19.6361C111.74 19.7627 112.096 19.8261 112.491 19.8261L112.494 19.8291Z" fill="white"/>
<path d="M120.672 22.3046V2.88281H124.315V22.3077H120.672V22.3046Z" fill="white"/>
<path d="M131.278 22.6329C130.017 22.6329 128.934 22.4339 128.026 22.039C127.119 21.644 126.404 21.0983 125.882 20.4079C125.36 19.7145 125.062 18.9186 124.992 18.0201H128.636C128.708 18.3427 128.853 18.6503 129.067 18.9367C129.284 19.2261 129.571 19.4492 129.93 19.612C130.289 19.7748 130.72 19.8562 131.224 19.8562C131.727 19.8562 132.11 19.7899 132.424 19.6542C132.738 19.5185 132.973 19.3346 133.127 19.1025C133.281 18.8703 133.356 18.6261 133.356 18.3729C133.356 17.996 133.244 17.7066 133.018 17.5106C132.792 17.3116 132.475 17.1428 132.059 16.9981C131.646 16.8534 131.142 16.7268 130.548 16.6212C129.899 16.4946 129.266 16.3378 128.645 16.1479C128.023 15.958 127.471 15.7168 126.986 15.4183C126.5 15.1228 126.114 14.752 125.825 14.3118C125.535 13.8717 125.393 13.3169 125.393 12.6537C125.393 11.8638 125.611 11.1432 126.042 10.495C126.473 9.84681 127.107 9.33428 127.945 8.95742C128.78 8.58056 129.767 8.39062 130.901 8.39062C132.557 8.39062 133.86 8.75844 134.813 9.49708C135.766 10.2357 136.333 11.2517 136.514 12.5451H133.088C132.979 12.114 132.741 11.7824 132.373 11.5472C132.005 11.3151 131.513 11.1975 130.901 11.1975C130.289 11.1975 129.782 11.3151 129.429 11.5472C129.079 11.7824 128.904 12.0778 128.904 12.4366C128.904 12.6898 129.016 12.9129 129.242 13.1119C129.468 13.3109 129.785 13.4797 130.201 13.6245C130.614 13.7692 131.118 13.9048 131.712 14.0284C132.756 14.2455 133.673 14.4927 134.466 14.7701C135.256 15.0505 135.878 15.4454 136.327 15.958C136.776 16.4705 137.003 17.2122 137.003 18.1829C137.003 19.0452 136.767 19.814 136.3 20.4893C135.832 21.1647 135.172 21.6892 134.315 22.0661C133.462 22.443 132.448 22.6329 131.278 22.6329Z" fill="white"/>
<path d="M13.4561 0.0135948C17.6124 0.339202 21.1654 3.51688 22.0612 7.54476C21.9617 7.56586 21.9315 7.50556 21.8682 7.46034C19.4372 5.7087 17.2867 4.82534 14.2011 5.28963C14.1227 5.30169 14.0292 5.23536 14.0533 5.37405C13.0067 5.16602 12.2859 5.16903 11.2423 5.37405C11.2664 5.23536 11.1729 5.30169 11.0945 5.28963C8.58504 4.91277 6.01527 5.53685 3.96127 7.01414C3.78332 7.14076 3.37312 7.44527 3.23438 7.58697C3.28867 7.11664 3.45757 6.61618 3.62949 6.17299C4.91136 2.80839 8.12055 0.372365 11.7249 0.0527882L11.7942 0.0135948C12.3341 0.0437436 12.9193 -0.0286135 13.4561 0.0135948Z" fill="#50B2D5"/>
<path d="M22.0978 7.71875C22.324 7.84537 22.5592 8.09561 22.7372 8.29158C28.851 14.9876 23.2258 25.6331 14.2437 24.394C13.743 24.3247 13.1971 24.2011 12.7266 24.0172C12.7326 24.0172 12.7477 23.9599 12.802 23.9448C15.9659 22.8987 18.3638 20.1551 19.0756 16.9111C19.0876 16.8538 19.1088 16.7905 19.1178 16.7423C19.3018 16.6971 19.4797 16.483 19.6125 16.3443C21.7871 14.047 22.7312 10.8482 22.1008 7.72176L22.0978 7.71875Z" fill="#F1A23B"/>
<path d="M3.14487 7.75781C2.42401 10.9958 3.76017 14.7342 6.21231 16.908C6.25453 17.1914 6.32692 17.4748 6.41439 17.7491C7.35845 20.7278 9.6447 22.9407 12.5613 24.014C7.80484 25.5968 2.56577 23.0764 0.698767 18.4817C-0.715812 15.0056 0.0442603 10.7214 2.73467 8.07136C2.83722 7.97187 3.01216 7.8151 3.14487 7.75781Z" fill="#3176B1"/>
<path d="M19.0779 16.9062C18.3691 20.1503 15.9682 22.8908 12.8043 23.94C12.753 23.958 12.7349 24.0123 12.7289 24.0123C12.6896 24.0244 12.6082 24.0033 12.56 24.0123C9.64634 22.939 7.36009 20.7261 6.41302 17.7474C6.32555 17.473 6.25316 17.1896 6.21094 16.9062C9.24821 19.6016 14.056 20.1292 17.5547 18.0037C18.0886 17.6811 18.541 17.2288 19.0749 16.9062H19.0779Z" fill="#EF762F"/>
<path d="M3.23244 7.59226C3.37118 7.45358 3.78138 7.14907 3.95933 7.01943C6.01032 5.54214 8.58009 4.91806 11.0925 5.29492C11.171 5.30698 11.2645 5.24066 11.2403 5.37934C5.94999 6.41043 3.78741 12.8683 7.38569 16.9112C10.984 20.9542 17.5351 19.5824 19.2905 14.5717C19.3176 15.3013 19.2573 16.0279 19.1216 16.7424C19.1125 16.7906 19.0914 16.854 19.0793 16.9112C18.5455 17.2338 18.0931 17.6861 17.5592 18.0087C14.0604 20.1341 9.25571 19.6035 6.21542 16.9112C3.76328 14.7375 2.42712 11.0021 3.14798 7.76109C3.16608 7.67366 3.1691 7.65557 3.23244 7.59226Z" fill="#173F84"/>
<path d="M22.0539 7.55256C22.0659 7.60984 22.084 7.66411 22.0961 7.72139C22.7265 10.8478 21.7854 14.0466 19.6077 16.3439C19.475 16.4826 19.2971 16.6967 19.1131 16.7419C19.2518 16.0274 19.3091 15.3008 19.282 14.5712C20.6845 10.5674 18.1751 6.20189 14.0429 5.37883C14.0188 5.24015 14.1123 5.30647 14.1907 5.29441C17.2763 4.83012 19.4268 5.71348 21.8578 7.46512C21.9211 7.51035 21.9483 7.57065 22.0508 7.54954L22.0539 7.55256Z" fill="#2F59C1"/>
<path d="M12.2494 8.49419C14.9549 8.24094 17.018 10.7584 16.2307 13.3662C15.3621 16.2424 11.5708 16.9449 9.68567 14.6053C7.81565 12.2899 9.31167 8.76854 12.2494 8.49419ZM12.5058 10.4539C9.88474 10.6468 10.6267 14.7651 13.1965 13.9511C15.1871 13.321 14.5899 10.3001 12.5058 10.4539Z" fill="#173F84"/>
</g>
<defs>
<clipPath id="clip0_1994_5490">
<rect width="136.942" height="28.566" fill="white"/>
</clipPath>
</defs>
</svg>
